<?xml version="1.0" encoding="UTF-8" standalone="no"?>
<svg
   xmlns:dc="http://purl.org/dc/elements/1.1/"
   xmlns:cc="http://creativecommons.org/ns#"
   xmlns:rdf="http://www.w3.org/1999/02/22-rdf-syntax-ns#"
   xmlns:svg="http://www.w3.org/2000/svg"
   xmlns="http://www.w3.org/2000/svg"
   xmlns:sodipodi="http://sodipodi.sourceforge.net/DTD/sodipodi-0.dtd"
   xmlns:inkscape="http://www.inkscape.org/namespaces/inkscape"
   xml:space="preserve"
   style="enable-background:new 0 0 70.074 70.075;"
   viewBox="0 0 70.074 70.075"
   height="70.075px"
   width="70.074px"
   y="0px"
   x="0px"
   id="Capa_1"
   version="1.1"
   sodipodi:docname="GarageTracker.svg"
   inkscape:version="0.92.4 (5da689c313, 2019-01-14)"><sodipodi:namedview
   pagecolor="#ffffff"
   bordercolor="#666666"
   borderopacity="1"
   objecttolerance="10"
   gridtolerance="10"
   guidetolerance="10"
   inkscape:pageopacity="0"
   inkscape:pageshadow="2"
   inkscape:window-width="1366"
   inkscape:window-height="689"
   id="namedview22"
   showgrid="false"
   inkscape:zoom="3.3678203"
   inkscape:cx="35.036999"
   inkscape:cy="35.037498"
   inkscape:window-x="0"
   inkscape:window-y="29"
   inkscape:window-maximized="1"
   inkscape:current-layer="Capa_1" /><metadata
   id="metadata3831"><rdf:RDF><cc:Work
       rdf:about=""><dc:format>image/svg+xml</dc:format><dc:type
         rdf:resource="http://purl.org/dc/dcmitype/StillImage" /><dc:title /></cc:Work></rdf:RDF></metadata><defs
   id="defs3829" />

<g
   id="g3796">
</g>
<g
   id="g3798">
</g>
<g
   id="g3800">
</g>
<g
   id="g3802">
</g>
<g
   id="g3804">
</g>
<g
   id="g3806">
</g>
<g
   id="g3808">
</g>
<g
   id="g3810">
</g>
<g
   id="g3812">
</g>
<g
   id="g3814">
</g>
<g
   id="g3816">
</g>
<g
   id="g3818">
</g>
<g
   id="g3820">
</g>
<g
   id="g3822">
</g>
<g
   id="g3824">
</g>
<rect
   style="fill:#008000;stroke-width:1.00639892"
   id="rect106"
   width="70.074997"
   height="70.074997"
   x="0.29692787"
   y="0.5938558" /><g
   transform="matrix(1,0,0,1.2175522,0.29692787,-7.0280208)"
   id="g3794"><path
     inkscape:connector-curvature="0"
     id="path3792"
     d="M 54.641,41.571 C 53.806,34.747 50.04,29.739 45.384,29.739 H 24.699 c -4.658,0 -8.424,5.006 -9.265,11.828 -2.94,1.688 -4.494,4.891 -4.494,8.615 0,2.336 0.633,4.457 1.803,6.152 v 7.479 h 9.825 V 60.065 H 47.51 v 3.748 h 9.825 v -7.479 c 1.17,-1.695 1.804,-3.816 1.804,-6.152 -0.005,-3.721 -1.556,-6.928 -4.498,-8.611 z M 19.266,53.394 c -1.773,0 -3.211,-1.435 -3.211,-3.212 0,-1.774 1.438,-3.212 3.211,-3.212 1.772,0 3.212,1.438 3.212,3.212 0,1.777 -1.44,3.212 -3.212,3.212 z m 1.146,-13.091 c -0.638,0 -1.226,0.072 -1.803,0.164 0.925,-4.481 3.333,-7.78 6.084,-7.78 H 45.38 c 2.751,0 5.159,3.298 6.083,7.78 -0.308,-0.048 -0.632,-0.064 -0.956,-0.087 0,-0.029 0.007,-0.05 0.007,-0.077 0,-2.834 -2.301,-5.137 -5.134,-5.137 -2.831,0 -5.133,2.303 -5.133,5.137 z M 44.366,53.041 H 25.71 c -0.542,0 -0.983,-0.438 -0.983,-0.981 0,-0.54 0.439,-0.98 0.983,-0.98 h 18.656 c 0.543,0 0.983,0.44 0.983,0.98 0.001,0.542 -0.44,0.981 -0.983,0.981 z m 0,-2.811 H 25.71 c -0.542,0 -0.983,-0.44 -0.983,-0.98 0,-0.543 0.439,-0.981 0.983,-0.981 h 18.656 c 0.543,0 0.983,0.438 0.983,0.981 0.001,0.54 -0.44,0.98 -0.983,0.98 z m -2.153,-9.927 c 0,-1.752 1.419,-3.171 3.171,-3.171 1.743,0 3.166,1.419 3.166,3.171 z m 8.596,13.091 c -1.774,0 -3.214,-1.435 -3.214,-3.212 0,-1.774 1.439,-3.212 3.214,-3.212 1.775,0 3.209,1.438 3.209,3.212 0,1.777 -1.435,3.212 -3.209,3.212 z M 70.074,6.26 V 63.814 H 68.11 V 8.222 H 1.966 V 63.814 H 0 V 6.26 Z M 3.272,9.582 h 63.532 v 3.931 H 3.274 Z m 0,5.482 h 63.532 v 3.928 H 3.274 Z m 0,5.479 h 63.532 v 3.929 H 3.274 Z" /></g></svg>